<svg width="152" height="220" viewBox="0 0 152 220" fill="none" xmlns="http://www.w3.org/2000/svg">
<path opacity="0.2" d="M88.6719 205.645C87.7591 200.861 84.3088 197.247 81.4856 193.477C78.666 189.703 76.2592 184.649 77.9408 180.103C79.5776 175.673 84.356 173.809 88.6622 173.235C92.9697 172.651 97.6173 172.712 101.091 170.135C106.976 165.8 106.236 155.162 100.974 149.036C95.7142 142.937 87.5436 141.142 80.1066 142.099C77.9275 142.362 75.3525 143.222 74.7411 145.518C73.9639 148.432 76.9929 150.656 79.6224 151.608C82.2531 152.546 85.477 153.825 85.9032 156.81C82.948 157.968 79.9372 159.231 77.4941 161.439C75.0498 163.646 73.2278 166.985 73.4651 170.391C73.6527 173.075 75.068 175.712 74.3743 178.318C72.9397 183.66 64.6347 183.262 62.6989 188.471C61.3684 192.016 63.8913 195.566 65.2424 199.032C66.5656 202.418 66.7836 206.211 67.516 209.832C68.2496 213.453 69.7 217.205 72.597 219.098C78.6902 223.083 90.0641 213.01 88.6719 205.645Z" fill="#D7D5D5"/>
<path opacity="0.2" d="M55.7856 152.471C51.2941 152.931 46.5714 150.909 45.5823 146.49C44.494 141.65 48.0278 135.384 46.1973 130.941C44.6986 127.321 40.4407 126.896 37.3221 125.538C32.7726 123.543 30.3053 119.014 28.0571 114.807C26.7799 112.412 25.5124 109.865 26.1879 106.288C27.1915 100.908 32.0752 95.686 36.7241 92.8543C41.2749 90.0263 46.4491 88.3964 50.529 90.2252C54.6113 92.0454 56.8727 98.0532 54.2832 103.108C52.6488 106.32 49.6343 108.507 47.23 111.201C44.8208 113.896 42.8378 117.983 44.2022 120.538C46.155 124.202 53.0459 121.548 55.2771 125.465C56.8328 128.198 55.0652 132.498 56.5337 135.313H56.535C58.886 139.795 68.0881 136.787 69.1171 142.788C70.1704 148.986 59.5616 151.972 55.7856 152.471Z" fill="#D7D5D5"/>
<path opacity="0.2" d="M113.046 86.6731C117.122 89.1531 122.148 92.4614 124.776 90.1815C127.257 88.0423 125.496 82.4395 123.644 77.9113C119.013 66.7871 113.484 54.0475 103.616 48.4133C98.8114 45.7162 93.544 45.2905 88.4447 44.1203C83.3455 42.9051 77.8952 40.5112 76.0878 35.601C73.9619 29.8345 77.6652 23.1949 81.2402 18.03C85.0973 17.671 89.2583 17.5243 92.1045 15.2044C94.9471 12.9075 95.2267 7.18833 91.7026 5.09883C89.1699 3.62296 86.1784 4.98968 84.2765 7.03674C82.3734 9.07895 81.0562 11.713 78.9667 13.663C75.3662 17.0137 70.146 17.9548 65.4729 18.3962C60.7998 18.8086 56.2236 18.8437 51.7382 20.9344C45.0882 23.9953 39.2275 31.7227 36.3232 39.5641C34.3522 44.9437 34.1598 51.0946 37.9006 51.0291C39.3982 51.0194 41.1923 50.0298 42.8315 49.8443C46.8388 49.4198 49.0167 53.5624 52.875 54.5557C56.7163 55.561 61.5165 53.5152 65.8869 51.6064C70.2513 49.6818 74.9328 47.7984 79.3129 49.0997C83.6954 50.4033 87.0695 56.3056 84.5441 60.1899C82.8322 62.8445 79.3359 63.5224 76.2439 63.6777C73.1544 63.8147 69.922 63.6862 67.1278 65.3973C64.3337 67.1133 62.4451 71.4875 64.3785 73.6437C61.4257 72.8603 57.9706 76.2305 57.3495 79.6382C56.726 83.0435 58.3325 86.0522 60.6763 87.8628C68.9353 94.3532 75.5866 84.6467 84.3564 82.0503C93.8272 79.2913 104.104 81.1213 113.046 86.6731Z" fill="#D7D5D5"/>
<path opacity="0.2" d="M72.3778 7.79473C73.9904 6.30552 74.7712 3.93224 74.2846 1.91671C71.1115 0.81193 67.6418 0.695519 64.2496 1.62324C61.7254 2.29024 58.6758 4.43309 58.6007 7.0671C58.5523 8.69456 59.7944 9.71932 61.2339 9.9364C62.6479 10.0116 70.7773 7.89538 72.3778 7.79473Z" fill="#D7D5D5"/>
</svg>
