<svg width="152" height="220" viewBox="0 0 152 220" fill="none" xmlns="http://www.w3.org/2000/svg">
<path opacity="0.2" d="M103.383 199.804C103.383 199.805 103.383 199.805 103.383 199.804C109.256 194.148 115.723 187.095 114.06 178.65C112.801 172.23 107.277 167.743 102.153 164.085C97.0005 160.396 91.8061 156.793 86.5874 153.343C83.081 151.025 79.5604 148.775 75.9206 146.866C73.1076 145.386 70.0723 143.99 68.3977 141.183C67.539 139.743 67.1102 138.013 67.003 136.254C66.626 130.14 70.1475 123.928 74.8969 120.257C79.6421 116.583 85.4385 115.169 91.1193 114.738C98.609 114.159 106.207 115.081 113.346 114.343C120.501 113.563 127.359 110.911 130.039 104.675C132.703 98.501 129.693 87.4425 122.702 83.3013C120.309 81.9235 117.74 81.543 115.285 80.3515C112.834 79.1538 110.296 76.5679 110.417 73.8403C110.545 71.0463 113.273 69.7987 114.038 67.3316C115.344 63.1279 110.783 58.135 106.849 55.0754C102.929 51.9851 98.3512 47.1773 100.127 42.9659C101.677 39.2895 106.621 39.8935 110.493 40.9253C114.381 41.8805 119.278 42.1206 119.531 38.1492C119.738 34.9887 116.641 31.4745 113.661 29.8847C110.686 28.2796 107.423 27.696 104.64 25.6503C100.746 22.804 98.9371 17.8072 96.3048 13.7247C90.4516 4.58808 80.0476 0.73295 70.375 0.141716C63.7741 -0.34736 57.052 0.312831 50.7274 3.97388C44.3794 7.59024 38.4872 14.7106 35.8098 22.3404C34.6538 25.6222 34.1437 29.107 35.3879 30.8526C37.2145 33.413 41.7425 31.4171 45.6999 30.2372C49.6323 28.9794 54.5731 29.4595 54.8184 33.8178C48.2754 37.4111 41.9324 41.6468 35.8995 46.4725C31.5102 49.9509 27.0921 54.17 24.1978 59.7401C20.3711 67.1873 20.1082 74.7482 22.7192 78.5178C25.3428 82.2989 30.5204 83.1404 36.2995 82.7407C42.0621 82.3104 48.4111 80.6491 54.831 79.5139C53.7265 83.9807 54.0979 88.505 55.8532 92.0881C46.2553 98.1626 38.1157 107.765 32.2792 118.225C29.3585 123.463 26.9225 129.184 26.9026 134.348C26.8802 139.762 29.5221 143.875 32.155 147.979C35.8587 153.736 39.8684 160.021 46.2354 163.363C50.3056 165.495 55.2647 166.396 58.5665 170.017C60.9241 172.604 62.2477 176.384 65.0941 178.398C67.7863 180.307 71.2545 180.247 74.4625 180.839C77.6704 181.428 81.1946 183.268 81.9101 186.822C82.906 191.777 77.8784 195.583 73.4702 196.762C67.3067 198.397 60.0286 199.612 60.0465 208.338C60.0571 214.084 63.2739 218.278 68.2157 219.51C81.4738 222.851 94.4218 208.321 103.383 199.804Z" fill="#D7D5D5"/>
</svg>
