<svg width="152" height="220" viewBox="0 0 152 220" fill="none" xmlns="http://www.w3.org/2000/svg">
<path opacity="0.2" d="M103.785 201.215C106.125 192.366 101.902 181.523 94.1182 176.807C90.8929 174.875 87.2422 174.009 84.0169 172.122C80.7929 170.23 77.8689 166.747 78.2062 162.797C78.5342 158.934 81.8822 155.543 80.8982 151.807C80.3796 149.83 78.7302 148.386 78.1422 146.438C77.3796 143.915 78.6435 141.081 80.5849 139.502C82.5235 137.922 84.9969 137.362 87.4009 137.023C93.8156 136.11 100.436 136.426 106.293 134.698C112.164 132.929 117.264 128.543 117.117 121.783C116.966 110.351 102.772 99.4246 103.642 88.2433C104.112 82.6473 108.405 79.15 112.833 77.7406C117.27 76.2953 122.112 76.3753 125.784 74.7753C129.461 73.146 131.832 69.0366 129.972 62.8926C127.342 53.8259 117.909 48.25 112.466 40.5313C108.648 34.9206 107.714 28.2647 104.618 22.3393C100.228 13.898 91.9449 8.71663 84.0316 5.58463C76.7969 2.64197 69.3676 0.607315 61.8529 1.50065C54.3249 2.34465 46.6716 6.58062 41.1729 13.774C35.6676 20.9846 32.6129 30.8286 34.4916 36.9886C35.7516 41.1126 39.1009 44.8393 36.8009 50.1846C34.8902 54.578 30.4342 57.0446 27.2489 60.7646C21.2315 67.8713 19.6516 78.2246 22.1142 83.6526C24.6062 89.1393 30.3849 91.326 36.7022 93.1206C39.0222 93.7566 41.7462 94.7459 42.0715 97.5806C42.3035 99.6086 41.1769 101.855 40.1396 103.91C34.3129 115.463 29.6822 127.753 28.9355 139.311C28.1995 150.906 31.9342 161.919 40.7235 167.639C44.9089 170.346 50.1502 171.873 53.4235 176.122C56.1142 179.617 57.0622 184.386 58.7862 188.647C60.5142 192.913 63.6635 197.15 67.9689 197.399C63.0515 201.485 62.0836 210.169 65.9142 215.341C75.0209 227.65 100.585 212.985 103.785 201.215Z" fill="#D7D5D5"/>
</svg>
