<svg width="152" height="220" viewBox="0 0 152 220" fill="none" xmlns="http://www.w3.org/2000/svg">
<path opacity="0.2" d="M90.1546 212.587C88.0333 212.083 85.8333 211.55 84.0506 209.887C82.2719 208.226 81.0266 205.082 81.7506 202.32C82.8119 198.264 86.8506 197.847 90.0493 197.704C94.4159 197.491 98.7106 196.426 102.661 194.771C106.752 193.018 110.681 190.463 111.932 185.89C113.172 181.395 110.539 173.67 106.133 171.992C103.38 171.02 100.995 172.859 98.3653 173.679C95.7399 174.47 91.7826 173.302 91.1973 169.591C90.728 166.571 92.908 164.2 92.8093 161.212C92.6906 157.42 89.0413 154.734 86.0226 154.822C83.0093 154.888 80.124 156.571 77.096 156.49C73.3133 156.399 70.0599 153.603 66.6506 152.13C63.2373 150.604 58.7026 151.154 56.3378 155.43C54.5088 158.711 54.4405 163.155 52.0556 165.658C49.2769 168.539 45.84 166.76 42.9588 169.351C39.1561 172.851 39.1749 179.772 42.1227 181.74C45.0915 183.758 49.5337 183.003 53.6602 183.444C57.7806 183.844 62.3653 186.558 62.9733 192.103C63.2893 194.956 62.4573 197.886 62.3986 200.778C62.2719 207.054 65.8599 212.622 70.0986 215.628C70.0986 215.63 70.0986 215.628 70.0986 215.63C73.7999 218.218 79.3106 220.359 83.5093 219.95C85.3746 219.726 92.1346 213.019 90.1546 212.587Z" fill="#D7D5D5"/>
</svg>
