<svg width="152" height="220" viewBox="0 0 152 220" fill="none" xmlns="http://www.w3.org/2000/svg">
<path opacity="0.2" d="M86.8241 212.044C87.7014 209.551 87.5219 206.627 88.5595 204.229C89.8851 201.165 92.8162 199.743 95.2777 197.984C97.7392 196.214 100.107 193.122 99.2311 189.825C98.4005 186.691 95.2544 185.413 92.7381 183.901C90.2258 182.386 87.7816 178.639 89.5139 176.122C90.4824 174.719 92.2644 174.616 93.8273 174.743C98.7301 175.135 104.269 176.457 107.821 173.099C109.482 171.531 110.418 169.115 112.15 167.735C114.919 165.536 118.871 166.543 122.322 166.567C128.741 166.519 134.333 162.36 133.984 155.338C133.662 148.633 128.377 141.001 122.495 136.806C116.626 132.615 110.116 131.214 103.636 129.526C101.307 128.901 98.3802 127.577 98.012 124.859C97.585 121.7 100.963 120.459 103.615 120.355C108.225 120.142 112.776 120.232 117.222 120.655C121.391 121.01 126.113 121.368 127.188 117.425C128.327 113.269 124.638 106.84 120.797 102.58C113.134 94.0084 103.304 88.9668 93.8821 89.7932C94.9288 86.7269 93.5647 82.7621 91.3202 80.072C89.0757 77.3829 86.098 75.7554 83.1831 74.349C76.9821 71.3364 70.4434 68.8967 63.856 70.5171C57.2504 72.0898 50.7127 78.9657 49.8658 86.3598C42.2653 84.6634 33.621 88.6018 26.7943 96.2889C22.6076 100.94 18.717 107.951 19.0162 112.751C19.2566 116.637 22.1826 117.829 25.1979 118.688C28.8805 119.707 32.9628 120.548 37.3422 121.181C39.2916 121.45 41.6851 122.251 41.5147 124.758C41.3393 127.303 38.6871 129.076 36.5775 130.248C30.5997 133.49 24.1391 138.954 22.2942 145.921C20.6187 152.182 23.6715 157.009 28.1625 159.014C32.6443 160.975 38.2439 160.7 43.7267 160.857C45.4002 160.905 47.1366 161.016 48.5504 161.934C49.9632 162.851 50.9683 164.801 50.4977 166.76C49.8486 169.45 47.1031 170.599 45.0321 172.116C39.3088 176.377 37.685 186.293 41.8727 191.42C44.5229 194.687 48.6599 195.929 51.9673 198.575C55.4552 201.366 57.9147 205.619 60.5507 209.612C63.1877 213.605 66.2476 217.577 70.2892 219.291C73.482 220.646 76.7346 219.995 79.5491 217.883C81.5705 216.361 85.8992 214.669 86.8241 212.044Z" fill="#D7D5D5"/>
</svg>
