<svg width="152" height="220" viewBox="0 0 152 220" fill="none" xmlns="http://www.w3.org/2000/svg">
<path opacity="0.2" d="M88.2183 213.785C87.2857 212.481 85.9469 211.61 84.6397 210.77C83.8982 210.293 83.0035 209.801 82.2177 210.182C81.7356 210.416 81.4193 210.93 81.189 211.452C76.1488 223.001 94.0418 221.9 88.2183 213.785Z" fill="#D7D5D5"/>
<path opacity="0.2" d="M76.8477 186.11C78.9027 182.568 83.1431 181.649 86.8584 180.698C89.2032 180.093 91.567 179.316 93.4246 177.733C95.2822 176.147 96.554 173.6 96.1199 171.007C95.7365 168.715 94.0826 166.75 92.1465 165.634C90.2092 164.521 88.0137 164.148 85.8575 163.997C83.1976 163.805 80.1289 164.15 78.6167 166.518C77.8448 167.725 77.598 169.303 76.654 170.361C74.9407 172.281 71.9885 171.563 69.6297 172.392C66.265 173.573 64.4947 177.883 64.7427 181.657C64.992 185.435 66.7673 188.833 68.4946 192.12C69.7638 194.509 74.1878 204.07 76.7047 199.779C78.8053 196.213 74.2561 190.582 76.8477 186.11Z" fill="#D7D5D5"/>
<path opacity="0.2" d="M111.871 156.197C114.071 153.917 114.682 149.746 112.57 146.54C110.16 142.878 105.646 142.219 101.781 142.219C100.925 142.901 101.366 144.527 102.156 145.517C102.946 146.507 104.02 147.28 104.551 148.434C108.244 156.229 94.2888 150.886 96.4628 156.197C99.1253 162.297 109.37 158.684 111.871 156.197Z" fill="#D7D5D5"/>
<path opacity="0.2" d="M51.6234 131.949C51.2121 129.552 48.4535 128.402 46.325 129.778C45.0761 131.557 45.0469 134.051 46.2579 135.352C47.4677 136.657 50.0024 133.291 51.6234 131.949Z" fill="#D7D5D5"/>
<path opacity="0.2" d="M38.5555 89.4388C39.9487 87.1562 42.2214 85.6913 44.3726 85.0641C46.5212 84.4307 48.6421 84.4687 50.825 84.2415C55.7019 83.7159 61.1482 81.7457 64.9875 77.7862C65.9391 76.7998 66.8413 75.3678 66.339 74.1923C65.8973 73.164 64.5686 72.9545 63.4753 73.3112C62.3845 73.6654 61.4076 74.4284 60.3497 74.9298C57.4443 76.3072 54.3808 75.6369 51.8246 74.7305C49.2697 73.8203 46.8034 72.6714 43.974 73.2516C39.3717 74.205 35.2337 79.3375 31.7374 84.1209C30.2695 86.128 28.7485 88.3534 28.2107 90.5813C27.4945 93.543 28.7346 95.4142 29.9722 97.0468C30.9858 98.3836 32.098 99.8016 33.9063 99.9882C40.4979 100.831 36.4638 92.9223 38.5555 89.4388Z" fill="#D7D5D5"/>
<path opacity="0.2" d="M97.0264 53.8894C102.47 52.2746 108.516 51.5954 113.812 56.3535C115.832 58.1574 117.587 60.5605 119.563 62.3785C121.546 64.1837 123.977 65.3579 124.754 63.9095C125.632 62.2744 124.008 58.4304 122.241 55.574C115.434 44.32 104.933 38.1579 94.6309 37.3721C92.7796 37.1995 90.8372 37.1893 89.3339 38.1427C87.8293 39.0974 86.9574 41.2809 87.8875 43.114C88.4936 44.3073 89.7616 45.2759 89.8831 46.567C90.0817 48.6337 87.4661 49.007 85.5376 49.2977C82.6867 49.4233 70.488 59.4574 75.7129 62.3772C78.6803 63.5261 94.3652 54.1547 97.0264 53.8894Z" fill="#D7D5D5"/>
<path opacity="0.2" d="M62.4945 15.1625C60.9963 13.907 58.6135 13.9997 56.6609 15.2958C54.7071 16.5818 53.2279 18.9138 52.6876 21.1735C52.3054 22.7781 52.4206 24.4615 53.4241 25.2397C54.5591 26.1207 56.418 25.6383 58.0909 25.2041C60.3661 24.5922 63.1791 24.7344 64.1902 22.0101C64.3648 21.5277 62.7527 15.3694 62.4945 15.1625Z" fill="#D7D5D5"/>
<path opacity="0.2" d="M92.2932 1.23376C92.2919 1.23376 92.2919 1.23376 92.2919 1.23376C92.0743 1.30231 91.868 1.39625 91.6732 1.51685C87.9541 3.89206 91.696 6.40183 94.5571 5.26184C98.1964 3.90095 96.2767 0.0137803 92.2932 1.23376Z" fill="#D7D5D5"/>
</svg>
